<svg width="28" height="29" viewBox="0 0 28 29" fill="none" xmlns="http://www.w3.org/2000/svg">
<path d="M9.22043 0.5875C8.27981 0.817188 7.39934 1.64844 7.13137 2.56172L7.04934 2.85156H6.05402C5.21731 2.85156 5.03684 2.86797 4.92746 2.93906C4.75246 3.06484 4.64855 3.34375 4.64855 3.69922V4H3.6259C2.46105 4 2.09465 4.06016 1.56418 4.33906C1.13762 4.56328 0.563398 5.1375 0.33918 5.56406C-0.0162891 6.24219 0.000117164 5.79375 0.000117164 14.5C0.000117164 23.2063 -0.0162891 22.7578 0.33918 23.4359C0.563398 23.8625 1.13762 24.4367 1.56418 24.6609C2.22043 25 2.16027 25 6.90715 25C10.8337 25 11.2329 24.9945 11.3751 24.907C11.6759 24.732 11.7415 24.2945 11.5173 24.032L11.3861 23.8789L6.96184 23.8516L2.54309 23.8242L2.17668 23.6438C1.76105 23.4414 1.52043 23.1953 1.31809 22.7578L1.1759 22.457V14.5V6.54297L1.35637 6.17656C1.55871 5.76094 1.8048 5.52031 2.2423 5.31797C2.52668 5.18125 2.59777 5.17578 3.59855 5.15938L4.64855 5.1375V5.47109C4.64855 6.17656 4.83449 6.64688 5.26105 7.04609C5.74777 7.49453 5.53996 7.47266 9.95324 7.47266H13.8634L14.1751 7.31953C14.5142 7.15 14.8095 6.86016 14.99 6.50469C15.0829 6.32422 15.1212 6.13828 15.1431 5.72266L15.1759 5.17578H16.2423C17.2814 5.17578 17.3142 5.18125 17.615 5.31797C17.9923 5.49844 18.3095 5.80469 18.49 6.16562L18.6212 6.43359L18.6486 10.2617C18.6704 13.2312 18.6923 14.1172 18.747 14.2102C18.829 14.3523 19.0806 14.5 19.2501 14.5C19.4525 14.5 19.6931 14.3359 19.7751 14.1445C19.8407 13.9859 19.8517 13.3516 19.8517 10.4148C19.8517 8.36406 19.8243 6.7125 19.797 6.48828C19.7259 6.01797 19.4087 5.33438 19.097 4.97891C18.7962 4.64531 18.3642 4.35 17.9048 4.175C17.5493 4.04375 17.4564 4.03281 16.3407 4.01094L15.1486 3.98906V3.58984C15.1486 3.23984 15.1321 3.16328 15.0173 3.03203L14.8861 2.87891L13.8306 2.85156L12.7806 2.82422L12.715 2.6C12.2829 1.12891 10.7134 0.226562 9.22043 0.5875ZM10.6423 1.83438C11.2001 2.09141 11.5665 2.61094 11.6486 3.25625C11.7361 3.95625 11.8181 4 13.0704 4H14.0001V4.92969C14.0001 5.98516 13.9564 6.14375 13.6446 6.275C13.3712 6.38984 6.48606 6.38984 6.21262 6.275C5.87356 6.13281 5.85168 6.05625 5.85168 4.97344V4H6.78684C8.00637 4 8.0884 3.95625 8.1759 3.26172C8.24699 2.70391 8.56965 2.19531 9.01262 1.93828C9.54856 1.62109 10.1009 1.58828 10.6423 1.83438Z" fill="#1565D8"/>
<path d="M3.7899 9.91718C3.47818 10.0703 3.42349 10.5844 3.69693 10.8414L3.83912 10.9726L9.84928 10.9891C16.5376 11.0055 16.111 11.0273 16.2751 10.6336C16.379 10.3984 16.3024 10.125 16.0946 9.96093C15.9579 9.85156 15.8922 9.85156 9.93131 9.85702C5.87896 9.85702 3.87193 9.8789 3.7899 9.91718Z" fill="#1565D8"/>
<path d="M3.7899 13.4172C3.47818 13.5703 3.42349 14.0844 3.69693 14.3414L3.83912 14.4726L9.84928 14.4891C16.5376 14.5055 16.111 14.5273 16.2751 14.1336C16.379 13.8984 16.3024 13.625 16.0946 13.4609C15.9579 13.3516 15.8922 13.3516 9.93131 13.357C5.87896 13.357 3.87193 13.3789 3.7899 13.4172Z" fill="#1565D8"/>
<path d="M24.1993 13.8383C23.729 13.9586 23.5758 14.1008 18.911 18.7602C16.3297 21.3305 14.1969 23.4961 14.1696 23.5727C14.0493 23.8844 13.2836 27.9149 13.3165 28.057C13.3657 28.2539 13.5461 28.4344 13.7321 28.4727C13.8797 28.5055 17.9211 27.7399 18.2165 27.6195C18.293 27.5922 20.4586 25.4594 23.0344 22.8781C26.775 19.1266 27.7375 18.1367 27.8415 17.918C27.9454 17.7047 27.9727 17.5516 27.9727 17.2344C27.9727 16.518 27.918 16.425 26.6711 15.1727C25.8016 14.2922 25.5172 14.0461 25.2985 13.9477C24.9977 13.8219 24.4672 13.7672 24.1993 13.8383ZM24.7899 14.9922C24.8227 14.9922 25.2821 15.4242 25.818 15.9547C26.8516 16.9828 26.9172 17.0867 26.775 17.4149C26.7313 17.5133 24.7899 19.493 22.1977 22.0797L17.6915 26.5641L16.1985 26.8594C15.3782 27.018 14.6946 27.1328 14.6727 27.1164C14.6563 27.0945 14.7711 26.411 14.9297 25.5906L15.225 24.0977L19.7641 19.5477C22.843 16.4688 24.3524 14.9922 24.4454 14.9758C24.5219 14.9649 24.6149 14.9594 24.6532 14.9703C24.6969 14.9813 24.7571 14.9922 24.7899 14.9922Z" fill="#1565D8"/>
<path d="M3.7899 16.9172C3.47818 17.0703 3.42349 17.5844 3.69693 17.8414L3.83912 17.9726L9.84928 17.9891C16.5376 18.0055 16.111 18.0273 16.2751 17.6336C16.379 17.3984 16.3024 17.125 16.0946 16.9609C15.9579 16.8516 15.8922 16.8516 9.93131 16.857C5.87896 16.857 3.87193 16.8789 3.7899 16.9172Z" fill="#1565D8"/>
</svg>
